<?xml version="1.0" encoding="UTF-8"?>
<svg version="1.1" viewBox="0 0 921 2048" width="1280" height="1280" xmlns="http://www.w3.org/2000/svg">
<path transform="translate(0)" d="m0 0h921v2048h-921z" fill="#FEFEFE"/>
<path transform="translate(52,483)" d="m0 0h387l1 1v292l-1 1h-386l-1-1z" fill="#1779B9"/>
<path transform="translate(258,509)" d="m0 0h24l16 8 10 10 10 15 8 20 5 13 4 15 3 13v7l3 7 8-3 14-1 7 1h5l4 6 2 1v16l-8 11-4 8-1 5v8l3 12 6 5 4 19v72h-211l-1-20-5-10-3-4v-2l-7 2-4 2h-14l-8-3-7-8-4-5-6-5-5-17-1-15-10-1-6 1-1-9v-6l-4-6-1-1v-42l5-5v-33l4-5 14-1h30l4 4 2 13 1 22v23l5 1 4 3-1 6-3 3h-3v20h6l5-4 10-4h18l1-4-3-8v-9l4-15 1-6 11-21 8-24 7-25 8-20 7-11 9-10 10-6z" fill="#D0A36C"/>
<path transform="translate(258,509)" d="m0 0h24l16 8 10 10 10 15 8 20 5 13 4 15 3 13v7l3 8-6 8 2 9v17l3 8 1 14v2l-1 13-4 11-3 24h-1v-10l2-15 2-8-12 5-3 12v41l-3 12h-2l-1-6 1-13 1-31 2-14v-5l-5 3h-2l-2 5-4 13-3 15-2-3 1-15 4-15 2-8-10-2-4-3-8-1-1-7h-2v-4l-4-5-7-6-2-4 10-4 7-8 6-10 4-13 2-21v-7l-2-4-5-1-1-3-5-2-1-2-5 4 1-4h-2v8l3 10 6 9v3l5 1 1 4-4 14-2 6-1 2h-15l3-2 5-2-1-6-9-1-5-2 2-2h10l6-1v-3h-13l2-2 13-3-2-2-11-1 2-4 2-2v-10l-1-7v-9l2-4 3 1 4-2 11-1-1-3h-9l-3 2h-5l1-5 4-3 9-3-7-14-5-4-18-4-10 1-6 3-6 9-4 9-3 9-2 10v23h-2l1 8 4 1 4 12 7 12v8l-3 16h-3v7l-1 7 5-1 2 4-1 5-8 7h-11l-12-2 4 9-1 2-9-14-6-7-7-5h-6l-3-5-2-7v-9l4-15 1-6 11-21 8-24 7-25 8-20 7-11 9-10 10-6z" fill="#6C3F2B"/>
<path transform="translate(132,595)" d="m0 0h5l1 1 2 49 1 11v20l-1 1-20 1h-24l-2-4v-14l-2-5 1-2v-25l-1-31 31-1z" fill="#6D402C"/>
<path transform="translate(129,690)" d="m0 0h8l2 3h5l8 9 4 1-4-8 4 2 2 3 1-2 4 1-3-6 3-1 2 3 1-3 7 1 1 1 3-3 3 5 3-1 5 19 3 15 8 16 2 12-3 10-3 1v2l-11 3-5-1v-3h-6l-2 1-2-13-5-10-3-4v-2l-7 2-4 2h-14l-8-3-6-7v-2l6 1h9l-2-5-3-13-2-10v-9z" fill="#6C3F2B"/>
<path transform="translate(106,584)" d="m0 0h30l4 4 3 77v18l-3 4-4 1-24 1h-15l-5-4v-6l2-1 46-2v-20l-1-11-2-49-14 1h-31v19l-1 14h-1l-1-10-1-1v-29l4-5z" fill="#F9F4EE"/>
<path transform="translate(377,619)" d="m0 0 4 2v16l-8 11-4 8-1 5v8l3 12 6 5 4 19v34l-2-3-4-13-3-9-4-14-2-13v-12l-3-3-2-11v-11l4-5 8-17z" fill="#6D402B"/>
<path transform="translate(92,600)" d="m0 0h1l1 40v13l-1 4 2 3v14l1 4-4 1 2 7 4 4-5 2h-4l-1-9v-6l-4-6-1-1v-42l5-5 3-7z" fill="#CFA36F"/>
<path transform="translate(140,633)" d="m0 0 2 4 1 28v18l-3 4-4 1-24 1h-15l-5-4v-6l2-1 46-2z" fill="#FEFEFE"/>
<path transform="translate(327,724)" d="m0 0 3 4 2-3v9l-1 7v12l-1 23h-11l3-1v-9l-1-6 3-8 3-5 1-4v-8l-1-4z" fill="#6C3F2B"/>
<path transform="translate(140,591)" d="m0 0h1l1 10 1 22v23l5 1 4 3-1 6-3 3h-3l-1 7-2-1-2-57z" fill="#D3A977"/>
<path transform="translate(203,594)" d="m0 0h1l-1 11-2 7-1 5-13 26h-3l2-10 2-6 10-19z" fill="#D1A46D"/>
<path transform="translate(248,575)" d="m0 0 8 1 4 4v4l-4-2-1 3h-7v-3h-2v3h-7l1-5 5-4z" fill="#6C3F2B"/>
<path transform="translate(188,678)" d="m0 0 4 2 4 15 2 9v12l-2-4-4-20-2-8h-2z" fill="#6C3F2B"/>
<path transform="translate(253,607)" d="m0 0 2 1-3 5v3h7l1 9 1 3-4-2-7-7-3-1 1-4z" fill="#6C3F2B"/>
<path transform="translate(247,565)" d="m0 0 10 1 2 4-7 1-8-1-7 2 2-4 3-2z" fill="#6C3F2B"/>
<path transform="translate(84,642)" d="m0 0 5 5 1 4-3 3v-3l-3-1z" fill="#FEFEFE"/>
<path transform="translate(84,628)" d="m0 0 4 1 1 5-1 3h-3l-1-2z" fill="#FEFEFE"/>
<path transform="translate(379,621)" d="m0 0h2v10l-5 2z" fill="#D1A46D"/>
</svg>
