<svg id="Group_69677" data-name="Group 69677" xmlns="http://www.w3.org/2000/svg" xmlns:xlink="http://www.w3.org/1999/xlink" width="15" height="13.5" viewBox="0 0 25 22.251">
  <defs>
    <clipPath id="clip-path">
      <rect id="Rectangle_25866" data-name="Rectangle 25866" width="25" height="22.251" fill="#ffffff"/>
    </clipPath>
  </defs>
  <g id="Group_69676" data-name="Group 69676" clip-path="url(#clip-path)">
    <path id="Path_198399" data-name="Path 198399" d="M177.263,3.295a3.562,3.562,0,0,1-.214.717,4.332,4.332,0,0,1-.668,1.009q-3.543,3.59-7.121,7.146a7.442,7.442,0,0,1-5.3,2.237.979.979,0,0,1-1.076-1.095A7.62,7.62,0,0,1,165.2,7.934q3.479-3.482,6.952-6.969a2.868,2.868,0,0,1,3.009-.831,2.811,2.811,0,0,1,2.06,2.367c0,.021.024.04.037.06Zm-12.327,9.058a5.547,5.547,0,0,0,2.883-1.511q3.587-3.578,7.159-7.169A.978.978,0,1,0,173.6,2.295q-3.571,3.576-7.139,7.155a5.526,5.526,0,0,0-1.379,2.328c-.053.175-.089.356-.143.574" transform="translate(-152.263 0)" fill="#ffffff"/>
    <path id="Path_198400" data-name="Path 198400" d="M.007,51.589q0-2.849,0-5.7a4.881,4.881,0,0,1,4.14-4.933,4.618,4.618,0,0,1,.777-.06q4.027-.006,8.054,0a.983.983,0,0,1,1.041,1.226.951.951,0,0,1-.927.726c-.586.008-1.172,0-1.757,0q-3.185,0-6.37,0a2.936,2.936,0,0,0-2.982,2.58,3,3,0,0,0-.022.439q0,5.759,0,11.518a1,1,0,0,0,.59,1.031.989.989,0,0,0,1.139-.247c.472-.437.961-.856,1.433-1.292A1.234,1.234,0,0,1,6,56.545q5.077.006,10.153,0a2.9,2.9,0,0,0,2.905-2.281,3.086,3.086,0,0,0,.077-.677c.01-.7,0-1.4,0-2.1a.977.977,0,1,1,1.95.006c-.008.92.029,1.846-.055,2.76a4.835,4.835,0,0,1-4.09,4.2,7.062,7.062,0,0,1-.9.055q-4.735.006-9.47,0a.771.771,0,0,0-.585.22c-.395.376-.795.75-1.223,1.086a2.775,2.775,0,0,1-3.047.383,2.777,2.777,0,0,1-1.71-2.632c-.026-1.989-.007-3.978-.007-5.967" transform="translate(0 -38.228)" fill="#ffffff"/>
    <path id="Path_198401" data-name="Path 198401" d="M62.43,132.808c-.479,0-.959,0-1.438,0a.976.976,0,1,1,0-1.952q1.438-.013,2.876,0a.977.977,0,1,1-.021,1.953c-.471,0-.942,0-1.413,0" transform="translate(-56.076 -122.314)" fill="#ffffff"/>
    <path id="Path_198402" data-name="Path 198402" d="M62.417,192.815c-.471,0-.942,0-1.413,0a.977.977,0,1,1,0-1.953q1.426-.011,2.851,0a.977.977,0,1,1,0,1.953c-.479,0-.959,0-1.438,0" transform="translate(-56.076 -178.409)" fill="#ffffff"/>
  </g>
</svg>
