<svg width="40" height="40" viewBox="0 0 40 40" fill="none" xmlns="http://www.w3.org/2000/svg">
<g id="g1217">
<g id="Clip path group">
<mask id="mask0_3661_25942" style="mask-type:luminance" maskUnits="userSpaceOnUse" x="0" y="0" width="40" height="40">
<g id="clipPath1223">
<path id="path1221" d="M0 0H40V40H0V0Z" fill="white"/>
</g>
</mask>
<g mask="url(#mask0_3661_25942)">
<g id="g1219">
<g id="g1225">
<path id="path1227" d="M19.9973 27.6945V24.6336M19.9973 24.6336C17.4378 24.6336 15.363 22.5587 15.363 19.9992M19.9973 24.6336C22.5567 24.6336 24.6316 22.5587 24.6316 19.9992M19.9973 15.3649V12.3039M19.9973 15.3649C20.8416 15.3649 21.6331 15.5906 22.3149 15.9851L22.3145 15.9857L23.8449 13.3349M19.9973 15.3649C17.4378 15.3649 15.363 17.4397 15.363 19.9992M16.1496 26.6636L17.6801 24.0126M15.363 19.9992H12.302M24.6316 19.9992C24.6316 19.1549 24.4059 18.3634 24.0114 17.6817L24.0107 17.6821L26.6617 16.1515M24.6316 19.9992H27.6926M13.333 23.8468L15.9838 22.3164M13.333 16.1515L15.9838 17.6821M24.0107 22.3164L26.6617 23.8468M16.1496 13.3349L17.6801 15.9857M22.3145 24.0126L23.8449 26.6636M31.5788 10.6063L33.9226 14.6657M35.488 13.2014C33.9629 12.8661 32.3438 13.8008 31.8718 15.2893M30.0135 12.0706C31.5385 12.406 33.1575 11.4712 33.6296 9.98277M24.9401 6.75051L25.5643 8.013L26.9699 7.92238L27.5941 9.18488L28.9996 9.09426M26.112 4.72082L26.7362 5.98332L28.1417 5.89269L28.766 7.15519L30.1714 7.06457M20.7608 7.41558C20.9263 7.54168 21.1329 7.6166 21.357 7.6166C21.9004 7.6166 22.341 7.17598 22.341 6.63246C22.341 6.08902 22.0348 5.14668 21.6713 4.21449M21.6713 4.21449L22.341 3.27918M21.6713 4.21449H19.9973L18.8254 6.53535L17.6535 4.21449M11.8871 7.57386L13.117 7.9034M14.251 5.9923L13.376 4.47683M13.376 4.47683L11.8606 5.35183M13.376 4.47683L11.8921 10.0147M6.9115 22.3429V17.4946M4.56775 17.6554V18.8273C3.92056 18.8273 3.39587 19.352 3.39587 19.9992C3.39587 20.6464 3.92056 21.1711 4.56775 21.1711V22.3429M7.30002 9.45215C7.73408 9.96011 8.67017 11.0556 9.12705 11.5903C9.44541 11.9628 9.58189 12.4338 9.3222 12.8835C9.10189 13.2653 8.63759 13.4407 8.17025 13.1709C7.97791 13.0599 7.51056 12.79 7.24384 12.6361C6.40634 12.1525 5.67931 11.8111 5.19103 12.6568C4.92173 13.1234 4.76337 13.9103 4.76337 13.9103L7.60259 15.5495M7.60259 24.4489C7.34072 24.9754 6.95713 25.7463 6.65791 26.3475C6.13627 27.3961 5.74728 28.3049 6.23548 29.1506C6.50486 29.6171 7.10713 30.1476 7.10713 30.1476L9.94635 28.5085M4.54142 26.2164L8.77447 26.4786M12.3974 29.6389C13.0301 29.7229 13.5758 30.2775 13.1685 30.9829C12.7741 31.666 11.4781 31.8788 10.9535 32.7875C10.5467 33.4921 10.8461 34.4267 11.6224 34.8748C12.3985 35.323 13.3576 35.115 13.7645 34.4104C14.0595 33.8993 14.2584 33.0554 14.2584 33.0554L14.6682 33.292M21.8231 32.969C20.9299 32.4154 19.4817 32.4154 18.5885 32.969C17.721 33.5067 17.996 34.7256 18.9756 34.7256M18.1714 36.4821C19.0646 37.0357 20.5129 37.0357 21.4061 36.4821C22.2736 35.9445 21.9986 34.7256 21.0191 34.7256M27.0053 34.6652L25.5183 32.0896M29.1944 33.4013L27.7074 30.8257M24.7149 32.195C25.9983 32.1951 27.5588 31.2942 28.2004 30.1827M30.006 33.3102C28.7227 33.31 27.1621 34.211 26.5206 35.3225M35.6256 27.1942C34.8685 26.757 33.9003 27.0164 33.4631 27.7737M33.4631 27.7737C33.0259 28.5309 33.2853 29.4991 34.0425 29.9363M33.4631 27.7737C33.9003 27.0164 33.6408 26.0482 32.8835 25.6111C32.1264 25.1739 31.1581 25.4333 30.721 26.1905C30.2838 26.9477 30.5432 27.916 31.3004 28.3532C32.0577 28.7903 33.0259 28.5309 33.4631 27.7737ZM33.1704 19.9992H35.3509M35.3509 19.9992C35.9981 19.9992 36.5228 19.4745 36.5228 18.8273C36.5228 18.1801 35.9981 17.6554 35.3509 17.6554M35.3509 19.9992C35.9981 19.9992 36.5228 20.5239 36.5228 21.1711C36.5228 21.8182 35.9981 22.3429 35.3509 22.3429M9.95822 19.9992C9.95822 25.5436 14.4529 30.0382 19.9973 30.0382C25.5417 30.0382 30.0363 25.5436 30.0363 19.9992C30.0363 14.4548 25.5417 9.96012 19.9973 9.96012C15.2599 9.96012 11.2889 13.2415 10.2333 17.6554M33.3831 5.938C37.0967 9.47418 39.4112 14.4664 39.4112 19.9992C39.4112 30.7212 30.7193 39.4131 19.9973 39.4131C18.6517 39.4131 17.3382 39.2762 16.0698 39.0156M13.8324 38.4138C6.13252 35.8371 0.583374 28.5662 0.583374 19.9992C0.583374 9.27722 9.27533 0.585348 19.9973 0.585348C24.1621 0.585348 28.0204 1.89675 31.1821 4.1291" stroke="white" stroke-width="2.0" stroke-miterlimit="10" stroke-linecap="round" stroke-linejoin="round"/>
</g>
</g>
</g>
</g>
</g>
</svg>
